<mxfile host="app.diagrams.net" modified="2024-01-10T20:38:22.779Z" agent="Mozilla/5.0 (Windows NT 10.0; Win64; x64) AppleWebKit/537.36 (KHTML, like Gecko) Chrome/120.0.0.0 Safari/537.36" etag="WaTh1QAdn5D0LIbDdgnv" version="22.1.18" type="github">
  <diagram id="f106602c-feb2-e66a-4537-3a34d633f6aa" name="Page-1">
    <mxGraphModel dx="1434" dy="746" grid="1" gridSize="10" guides="1" tooltips="1" connect="0" arrows="0" fold="1" page="1" pageScale="1" pageWidth="1169" pageHeight="827" background="none" math="0" shadow="0">
      <root>
        <mxCell id="0" />
        <mxCell id="1" parent="0" />
        <mxCell id="AXALb55oG-hjZWi8PcO5-1052" value="Komponentit" style="sketch=0;points=[[0,0,0],[0.25,0,0],[0.5,0,0],[0.75,0,0],[1,0,0],[1,0.25,0],[1,0.5,0],[1,0.75,0],[1,1,0],[0.75,1,0],[0.5,1,0],[0.25,1,0],[0,1,0],[0,0.75,0],[0,0.5,0],[0,0.25,0]];rounded=1;absoluteArcSize=1;arcSize=2;html=1;strokeColor=none;gradientColor=none;shadow=0;dashed=0;fontSize=12;fontColor=#9E9E9E;align=left;verticalAlign=top;spacing=10;spacingTop=-4;whiteSpace=wrap;fillColor=#F3E5F5;" parent="1" vertex="1">
          <mxGeometry x="425" y="190" width="275" height="230" as="geometry" />
        </mxCell>
        <mxCell id="AXALb55oG-hjZWi8PcO5-1054" value="Käyttöliittymä" style="sketch=0;aspect=fixed;pointerEvents=1;shadow=0;dashed=0;html=1;strokeColor=none;labelPosition=center;verticalLabelPosition=bottom;verticalAlign=top;align=center;fillColor=#00188D;shape=mxgraph.mscae.enterprise.client_application" parent="1" vertex="1">
          <mxGeometry x="450" y="237.5" width="50" height="32" as="geometry" />
        </mxCell>
        <mxCell id="AXALb55oG-hjZWi8PcO5-1056" value="" style="sketch=0;aspect=fixed;pointerEvents=1;shadow=0;dashed=0;html=1;strokeColor=none;labelPosition=center;verticalLabelPosition=bottom;verticalAlign=top;align=center;fillColor=#00188D;shape=mxgraph.azure.user" parent="1" vertex="1">
          <mxGeometry x="250" y="237.5" width="47" height="50" as="geometry" />
        </mxCell>
        <mxCell id="AXALb55oG-hjZWi8PcO5-1057" value="" style="endArrow=classic;html=1;rounded=0;entryX=0.04;entryY=0.609;entryDx=0;entryDy=0;entryPerimeter=0;exitX=1.064;exitY=0.37;exitDx=0;exitDy=0;exitPerimeter=0;" parent="1" source="AXALb55oG-hjZWi8PcO5-1056" target="AXALb55oG-hjZWi8PcO5-1054" edge="1">
          <mxGeometry width="50" height="50" relative="1" as="geometry">
            <mxPoint x="340" y="300" as="sourcePoint" />
            <mxPoint x="610" y="360" as="targetPoint" />
          </mxGeometry>
        </mxCell>
        <mxCell id="AXALb55oG-hjZWi8PcO5-1058" value="Tietokanta" style="sketch=0;aspect=fixed;pointerEvents=1;shadow=0;dashed=0;html=1;strokeColor=none;labelPosition=center;verticalLabelPosition=bottom;verticalAlign=top;align=center;fillColor=#00188D;shape=mxgraph.mscae.enterprise.database_generic" parent="1" vertex="1">
          <mxGeometry x="620" y="340" width="37" height="50" as="geometry" />
        </mxCell>
        <mxCell id="AXALb55oG-hjZWi8PcO5-1059" value="Web serveri" style="sketch=0;aspect=fixed;pointerEvents=1;shadow=0;dashed=0;html=1;strokeColor=none;labelPosition=center;verticalLabelPosition=bottom;verticalAlign=top;align=center;fillColor=#00188D;shape=mxgraph.mscae.enterprise.web_server" parent="1" vertex="1">
          <mxGeometry x="620" y="228.5" width="38" height="50" as="geometry" />
        </mxCell>
        <mxCell id="AXALb55oG-hjZWi8PcO5-1060" value="" style="endArrow=classic;html=1;rounded=0;exitX=1.06;exitY=0.578;exitDx=0;exitDy=0;exitPerimeter=0;entryX=-0.079;entryY=0.55;entryDx=0;entryDy=0;entryPerimeter=0;" parent="1" source="AXALb55oG-hjZWi8PcO5-1054" target="AXALb55oG-hjZWi8PcO5-1059" edge="1">
          <mxGeometry width="50" height="50" relative="1" as="geometry">
            <mxPoint x="560" y="410" as="sourcePoint" />
            <mxPoint x="610" y="360" as="targetPoint" />
          </mxGeometry>
        </mxCell>
        <mxCell id="AXALb55oG-hjZWi8PcO5-1061" value="" style="endArrow=classic;startArrow=classic;html=1;rounded=0;entryX=0.243;entryY=-0.08;entryDx=0;entryDy=0;entryPerimeter=0;exitX=0.316;exitY=0.99;exitDx=0;exitDy=0;exitPerimeter=0;" parent="1" source="AXALb55oG-hjZWi8PcO5-1059" target="AXALb55oG-hjZWi8PcO5-1058" edge="1">
          <mxGeometry width="50" height="50" relative="1" as="geometry">
            <mxPoint x="560" y="410" as="sourcePoint" />
            <mxPoint x="610" y="360" as="targetPoint" />
          </mxGeometry>
        </mxCell>
        <mxCell id="AXALb55oG-hjZWi8PcO5-1062" value="" style="endArrow=classic;html=1;rounded=0;entryX=1.12;entryY=0.984;entryDx=0;entryDy=0;entryPerimeter=0;exitX=-0.105;exitY=0.85;exitDx=0;exitDy=0;exitPerimeter=0;" parent="1" source="AXALb55oG-hjZWi8PcO5-1059" target="AXALb55oG-hjZWi8PcO5-1054" edge="1">
          <mxGeometry width="50" height="50" relative="1" as="geometry">
            <mxPoint x="560" y="410" as="sourcePoint" />
            <mxPoint x="610" y="360" as="targetPoint" />
          </mxGeometry>
        </mxCell>
      </root>
    </mxGraphModel>
  </diagram>
</mxfile>
